<svg id="Capa_1" data-name="Capa 1" xmlns="http://www.w3.org/2000/svg" viewBox="0 0 1927.27 2028.83"><defs><style>.cls-1{fill:#cde9ed;}.cls-2{fill:none;}.cls-3{fill:#f09a5e;}.cls-4{fill:#191934;}.cls-5{fill:#fdeadc;}.cls-6{fill:#3c536c;}.cls-7{fill:#fff8dc;}.cls-8{fill:#07070b;}.cls-9{fill:#693c3c;}.cls-10{fill:#351410;}.cls-11{fill:#8a98b0;}.cls-12{fill:#899b30;}.cls-13{fill:#325c3b;}</style></defs><path class="cls-1" d="M1271.8,98c-2.94-.4-5.88-.77-8.83-1.15q5.9.75,11.79,1.58Z" transform="translate(-44.89 -87.91)"/><path class="cls-1" d="M1287.42,100.23c-1-.16-2.07-.29-3.1-.44,2.63.39,5.26.82,7.89,1.23C1290.61,100.77,1289,100.47,1287.42,100.23Z" transform="translate(-44.89 -87.91)"/><path class="cls-1" d="M1310.77,104.07l-1.2-.2q5.25.91,10.5,1.88C1317,105.18,1313.86,104.6,1310.77,104.07Z" transform="translate(-44.89 -87.91)"/><path class="cls-1" d="M1124.93,87.91c-.77,0-1.53,0-2.29,0,4.3,0,8.61,0,12.91.06C1132,88,1128.46,87.91,1124.93,87.91Z" transform="translate(-44.89 -87.91)"/><path class="cls-1" d="M1145.33,88.11c-.57,0-1.1,0-1.65,0q9.45.17,18.89.5Q1154,88.28,1145.33,88.11Z" transform="translate(-44.89 -87.91)"/><path class="cls-1" d="M1184.5,89.55c-2.7-.15-5.39-.29-8.09-.4l-1,0c-1.95-.1-3.88-.16-5.81-.24,5.88.24,11.77.5,17.65.85Z" transform="translate(-44.89 -87.91)"/><path class="cls-1" d="M1216.77,91.85c-.75-.07-1.5-.12-2.26-.18q7.85.64,15.68,1.42C1225.74,92.62,1221.28,92.23,1216.77,91.85Z" transform="translate(-44.89 -87.91)"/><path class="cls-1" d="M1206.3,91c-1.9-.15-3.74-.3-5.64-.4-2.9-.25-5.79-.4-8.68-.6l-2.85-.17q9.54.57,19.08,1.33Z" transform="translate(-44.89 -87.91)"/><path class="cls-1" d="M1251.2,95.34c-4.19-.5-8.38-1-12.62-1.4l-.63-.06q8.41.89,16.82,1.9Z" transform="translate(-44.89 -87.91)"/><path class="cls-1" d="M1409.7,126.17c-2-.53-3.92-1-5.87-1.54,3.18.86,6.37,1.69,9.55,2.58Z" transform="translate(-44.89 -87.91)"/><path class="cls-1" d="M1362.75,114.45c-2.41-.54-4.84-1-7.26-1.57,3.63.79,7.24,1.59,10.86,2.42C1365.15,115,1364,114.72,1362.75,114.45Z" transform="translate(-44.89 -87.91)"/><path class="cls-1" d="M139.44,851.93c-1.15,3.84-2.24,7.73-3.34,11.62-1,3.57-2,7.16-3,10.75q3.19-11.65,6.6-23.25Z" transform="translate(-44.89 -87.91)"/><path class="cls-1" d="M128.12,893c-1,3.6-1.84,7.21-2.73,10.81q2.69-10.8,5.55-21.54C130,885.88,129,889.45,128.12,893Z" transform="translate(-44.89 -87.91)"/><path class="cls-1" d="M1790.59,326.44c17.18,0,17.21-26.7,0-26.7S1773.38,326.44,1790.59,326.44Z" transform="translate(-44.89 -87.91)"/><path class="cls-1" d="M1609.14,661.94c17.18,0,17.21-26.7,0-26.7S1591.93,661.94,1609.14,661.94Z" transform="translate(-44.89 -87.91)"/><path class="cls-1" d="M529.46,446.18l4.09,4.09a9.84,9.84,0,0,0,4.3,2.76,12,12,0,0,0,10.28,0,9.84,9.84,0,0,0,4.3-2.76l2.09-2.7a13.36,13.36,0,0,0,1.82-6.74l-.48-3.54a13.34,13.34,0,0,0-3.43-5.9l-4.09-4.08a10,10,0,0,0-4.3-2.77,13.68,13.68,0,0,0-14.58,2.77c-.7.9-1.4,1.79-2.09,2.7a13.26,13.26,0,0,0-1.82,6.74c.16,1.18.31,2.36.47,3.54A13.37,13.37,0,0,0,529.46,446.18Z" transform="translate(-44.89 -87.91)"/><path class="cls-1" d="M462.22,1016.49c17.18,0,17.21-26.71,0-26.71S445,1016.49,462.22,1016.49Z" transform="translate(-44.89 -87.91)"/><path class="cls-1" d="M1443.91,1327.35c17.18,0,17.21-26.7,0-26.7S1426.7,1327.35,1443.91,1327.35Z" transform="translate(-44.89 -87.91)"/><path class="cls-1" d="M189.63,276.83q5.85,5.85,11.71,11.69a28.4,28.4,0,0,0,12.28,7.9,28.74,28.74,0,0,0,14.71,3.29A28.76,28.76,0,0,0,243,296.42a28.61,28.61,0,0,0,12.29-7.9c2-2.57,4-5.14,6-7.72a38.05,38.05,0,0,0,5.22-19.27c-.45-3.38-.91-6.76-1.36-10.15a38.29,38.29,0,0,0-9.82-16.85l-11.71-11.69a28.37,28.37,0,0,0-12.28-7.9,28.73,28.73,0,0,0-14.71-3.28,28.75,28.75,0,0,0-14.71,3.28,28.52,28.52,0,0,0-12.29,7.9l-6,7.72a38,38,0,0,0-5.21,19.27c.45,3.38.91,6.77,1.36,10.15A38.29,38.29,0,0,0,189.63,276.83Z" transform="translate(-44.89 -87.91)"/><path class="cls-1" d="M1458.87,170.19,1472,183.35a32,32,0,0,0,13.82,8.88,38.79,38.79,0,0,0,33.11,0,32.08,32.08,0,0,0,13.82-8.88l6.72-8.69a42.81,42.81,0,0,0,5.86-21.69q-.75-5.7-1.52-11.42a43.16,43.16,0,0,0-11.06-19l-13.17-13.16a32,32,0,0,0-13.82-8.88,38.89,38.89,0,0,0-33.11,0,32.08,32.08,0,0,0-13.82,8.88c-2.24,2.9-4.49,5.79-6.72,8.69a42.9,42.9,0,0,0-5.87,21.69l1.53,11.42A43.06,43.06,0,0,0,1458.87,170.19Z" transform="translate(-44.89 -87.91)"/><path class="cls-1" d="M1730.86,972.09c60.59,0,60.69-94.18,0-94.18S1670.15,972.09,1730.86,972.09Z" transform="translate(-44.89 -87.91)"/><path class="cls-1" d="M1011.28,138c17.18,0,17.21-26.7,0-26.7S994.07,138,1011.28,138Z" transform="translate(-44.89 -87.91)"/><path class="cls-1" d="M583.51,219l4.09,4.09a13.74,13.74,0,0,0,18.88,0l2.09-2.7a13.42,13.42,0,0,0,1.82-6.74c-.16-1.19-.32-2.37-.47-3.55a13.42,13.42,0,0,0-3.44-5.89l-4.09-4.09a9.84,9.84,0,0,0-4.3-2.76,12.08,12.08,0,0,0-10.29,0,9.87,9.87,0,0,0-4.29,2.76l-2.09,2.7a13.39,13.39,0,0,0-1.82,6.74c.16,1.18.32,2.36.47,3.55A13.48,13.48,0,0,0,583.51,219Z" transform="translate(-44.89 -87.91)"/><path class="cls-1" d="M206.37,708.07c17.18,0,17.21-26.7,0-26.7S189.16,708.07,206.37,708.07Z" transform="translate(-44.89 -87.91)"/><path class="cls-2" d="M1129.5,681.09l2.32.58c-13-14.77-25.61-29.81-38.49-44.64-12.71-14.64-25.65-29.11-39.31-42.89-4.47-4.5-13.11-10.38-16.29-16.36-14.86,1.86-33,.08-46.62-1.52-4.58-.54-12.05-.49-16.3-2.32-4.08-1.75-7.61-1.74-7.31-7.31.15-2.71,2.66-4.53,4.9-5.92-6.36-1.06-12.7-2.26-19-3.55a236.17,236.17,0,0,1,20.85,87.09c.37,8.61.17,17.64-4,25.21-5.14,9.43-15.41,14.84-25.51,18.5a153.49,153.49,0,0,1-24.08,6.59,80.23,80.23,0,0,0-1,14.48c.36,12.29,4.1,24.89,11.06,34.73,20.51-11.09,54.56-22,73-27.49q37.15-11.13,74.78-20.62c4.59-1.15,9.19-2.27,13.79-3.39q17.46-4.26,35-8.16A2,2,0,0,1,1129.5,681.09Z" transform="translate(-44.89 -87.91)"/><path class="cls-2" d="M894.39,1968.88c31-14.47,54.93-45.78,79.94-70.12,14.19-13.8,28.6-27.76,45.89-37.41,1.46-.82,2.94-1.58,4.43-2.33l-7.67.12c-3-21,13-64.49,13-64.49l5.9-.11c0-.31-.08-.6-.1-.92l9.09-11.91-16.23-3.36,138.14-251.1S1057.22,1485,961,1448.9l80.69,178.29-241,300.36L788,1925.76l-5,8c28.28,6.51,84.11,19.83,100.31,27.26A36.85,36.85,0,0,1,894.39,1968.88Z" transform="translate(-44.89 -87.91)"/><path class="cls-3" d="M996,1131.64c34-25.3,69.44-57.6,97.28-85a36.94,36.94,0,0,0,11.82.92c6.19-.4,17.81-4.23,28.09-9.67l-23.44-42.51a12.55,12.55,0,0,0,4.67-7.21c1-4.22.22-8.64-.79-12.86,4.14,1.18,11.34.41,17.77.74l.26.35c-4.68,6.24-12.44,12.41-7.57,19.49,1.52,2.23,4.42,3.18,7.12,3.07a24.24,24.24,0,0,0,7.77-2.13,16.47,16.47,0,0,0-8.31,9.55,9.85,9.85,0,0,0-.55,3.65,8.4,8.4,0,0,0,5.37,6.92,12.67,12.67,0,0,0,9-.17,17.24,17.24,0,0,0,9.88-10l2.17,2.92.37-.5c4.75-6.53,6.77-16.41,1.21-22.26-1.51-1.58-3.52-2.83-4.32-4.87-1.49-3.85,2.1-7.6,3.59-11.46,2.47-6.36-2-14.42-8.75-15.66-1.38-.26-3-.36-3.81-1.49-1.08-1.47-.08-3.49.57-5.19a12.79,12.79,0,0,0-5.11-15c-5.41-3.32-12.48-1.65-16.38,3.12s-5.19,8-9.73,9.48c-.79-.4-1.56-.77-2.27-1.08a25.32,25.32,0,0,0-5-1.62,12.1,12.1,0,0,0-6.35.2c-5.16,1.74-9.2,8-11.64,14.13-.49,1.22-.92,2.42-1.27,3.59-6.41,11.2-13.64,27.32-15.9,42.52l-66,40.83q-2.64,11.22-5.27,22.45C995.15,1089.61,990.94,1109.66,996,1131.64Z" transform="translate(-44.89 -87.91)"/><path class="cls-4" d="M1035.86,1794.54l-5.9.11s-15.94,43.51-13,64.49l7.67-.12c26.54-13.34,57.21-16.32,87-18.48,32.86-2.37,67-3.91,97.6,8.35,3.21,1.29,6.31,2.76,9.37,4.3-1.47-7.26-6.92-26.5-24.66-34.46-15.75-7.07-68.78-19.37-97.84-25.83l-13,15.54S1038.41,1821,1035.86,1794.54Z" transform="translate(-44.89 -87.91)"/><path class="cls-5" d="M1035.76,1793.62c0,.32.07.61.1.92,2.55,26.49,47.19,13.9,47.19,13.9l13-15.54.41-.5-51.65-10.69Z" transform="translate(-44.89 -87.91)"/><path class="cls-3" d="M931.42,643c-1.62,5.46-3.37,10.89-5.19,16.31-4.07,12.12-8.45,24.17-12.36,36.32a272.63,272.63,0,0,0-9.33,36.19c-1,5.58-1.68,11.21-2.29,16.85A67.39,67.39,0,0,1,920,750.59l2.52-1.78a85.15,85.15,0,0,1,8.32-5c-7-9.84-10.7-22.44-11.06-34.73a80.23,80.23,0,0,1,1-14.48A153.49,153.49,0,0,0,944.77,688c10.1-3.66,20.37-9.07,25.51-18.5,4.12-7.57,4.32-16.6,4-25.21a236.17,236.17,0,0,0-20.85-87.09c6.32,1.29,12.66,2.49,19,3.55-2.24,1.39-4.75,3.21-4.9,5.92-.3,5.57,3.23,5.56,7.31,7.31,4.25,1.83,11.72,1.78,16.3,2.32,13.67,1.6,31.76,3.38,46.62,1.52,3.18,6,11.82,11.86,16.29,16.36,13.66,13.78,26.6,28.25,39.31,42.89,12.88,14.83,25.54,29.87,38.49,44.64l3.15.8,64.51,16.35,2,.51c2.4.61,1.5,3.82-.7,3.82a2,2,0,0,1-.35,0L1190,701.49a1.53,1.53,0,0,1-1.39-1.34l-60.13-15.24a1.83,1.83,0,0,1-1.12-.81q-17.53,3.9-35,8.16a496.89,496.89,0,0,1,65.21,100.48c25.19-15,48.65-30.11,67.31-44.33,9-5.69,18-14.52,25.15-20.83,15-13.13,29.51-32.45,16.06-51.35-12.26-17.23-32.08-28.67-48.79-41a716.58,716.58,0,0,0-87.9-55.59c-18.19-9.73-53.76-24.77-74.24-31.2-7.22-2.28,1.72-1.93-5.82-2h-.3c-7-3.33-13.86-4.75-22.36-6.74A163.86,163.86,0,0,0,1000.3,536c-18.64-1.26-38-1.35-56.49,2.83a47.32,47.32,0,0,0-8.47-9.21c.74,2.18,1.43,4.39,2,6.6C946.75,570.31,941.35,609.48,931.42,643Z" transform="translate(-44.89 -87.91)"/><path class="cls-4" d="M846.89,1975.92a81.32,81.32,0,0,0,47.5-7,36.85,36.85,0,0,0-11-7.82c-16.2-7.43-72-20.75-100.31-27.26L778,1942c-12.63,24.73-49.24-5.56-49.24-5.56l.57-1-.28,0-9.44.1s-4.76,26.2-5.64,47.8c8.57-2.16,17.56-3.68,26.38-5C774.35,1973.09,812.72,1970.87,846.89,1975.92Z" transform="translate(-44.89 -87.91)"/><path class="cls-5" d="M728.75,1936.46s36.61,30.29,49.24,5.56l5.07-8.22,5-8-48.85-7-9.85,16.71Z" transform="translate(-44.89 -87.91)"/><path class="cls-6" d="M800.61,1927.55l241-300.36L961,1448.9c96.27,36.13,205.81,78.35,205.81,78.35l-138.14,251.1,16.23,3.36,51.65,10.69,6.57,1.36c44-57.33,197.49-289.81,197.49-289.81L1025,1230.71c-1.69,2-4.92,4.06-10.3,7.3-9.84,5.92-21.12,10.25-31.83,14.3a333.37,333.37,0,0,1-54,15.21,375.53,375.53,0,0,1-77.64,6.83,475,475,0,0,1-67.66-6.09c-7.11-1.43-14.39-1.52-21.59-1.87-2.6,9.32-3.41,20.38-4.4,28.34-3.42,27.83-1.6,56.2,4.1,83.6,9.28,44.68,28.82,85.56,50.28,125.48,11.57,21.51,23.77,42.71,36,63.83q9.45,16.27,19.09,32.43c2,3.42,19.84,28.1,18.45,30.49,0,0-147.73,255.1-161.18,286.1l14.86,2.12,48.85,7Zm42.33-499.95c-2.51-.46-1.44-4.29,1.06-3.83a106.46,106.46,0,0,0,43.68-1.12A277.86,277.86,0,0,1,787.06,1383c-2.14-1.38-.15-4.81,2-3.42a274.4,274.4,0,0,0,160.1,43.24c1,0,2.05,0,3.07-.1,2.56-.15,2.54,3.83,0,4-.43,0-.86,0-1.3,0a276.23,276.23,0,0,1-57.7-3.21,1.82,1.82,0,0,1-1.35,2.18A111.4,111.4,0,0,1,842.94,1427.6Z" transform="translate(-44.89 -87.91)"/><path class="cls-7" d="M851.19,1274.35a375.53,375.53,0,0,0,77.64-6.83,333.37,333.37,0,0,0,54-15.21c10.71-4,22-8.38,31.83-14.3,5.38-3.24,8.61-5.31,10.3-7.3,3.26-3.82.71-7.32-4-18.16-10.54-24.44-16.41-50.47-23.79-75.94-.48-1.67-.9-3.33-1.28-5-5-22-.81-42,4.51-64.7q2.64-11.22,5.27-22.45,7.95-33.9,15.91-67.78c5.41-23.07,10.86-46.77,7.61-70.24-1.84-13.31-6.45-25.93-12.35-38,39.06-19.64,92.91-47.34,140.63-75.69a496.89,496.89,0,0,0-65.21-100.48c-4.6,1.12-9.2,2.24-13.79,3.39q-37.61,9.5-74.78,20.62c-18.4,5.52-52.45,16.4-73,27.49a85.15,85.15,0,0,0-8.32,5L920,750.59a67.39,67.39,0,0,0-17.71-1.93c-2,18.26-2.67,36.71-6.69,54.62-12.34,54.92-48.41,86.11-102.48,97.51-11.39,2.4-21.57,2.1-30.49-.58-.2,2.81-.43,5.6-.56,8.47-2.94,62.88-1,125.82-.67,188.72.14,22.44-.23,44.89-.69,67.32-.57,28.15-2.82,56.15-4.81,84.23-.35,5-.67,10.21,1.3,14.8a4.21,4.21,0,0,0,1.75,2.23,4.69,4.69,0,0,0,1.9.36l1.13.05c7.2.35,14.48.44,21.59,1.87A475,475,0,0,0,851.19,1274.35Z" transform="translate(-44.89 -87.91)"/><path class="cls-8" d="M893.23,1423.55a276.23,276.23,0,0,0,57.7,3.21c.44,0,.87,0,1.3,0,2.54-.13,2.56-4.11,0-4-1,0-2,.06-3.07.1a274.4,274.4,0,0,1-160.1-43.24c-2.15-1.39-4.14,2-2,3.42a277.86,277.86,0,0,0,100.62,39.62,106.46,106.46,0,0,1-43.68,1.12c-2.5-.46-3.57,3.37-1.06,3.83a111.4,111.4,0,0,0,48.94-1.87A1.82,1.82,0,0,0,893.23,1423.55Z" transform="translate(-44.89 -87.91)"/><path class="cls-9" d="M1127.32,684.1a1.83,1.83,0,0,0,1.12.81l60.13,15.24a1.53,1.53,0,0,0,1.39,1.34l10.49,1.67a2,2,0,0,0,.35,0c2.2,0,3.1-3.21.7-3.82l-2-.51L1135,682.47l-3.15-.8-2.32-.58A2,2,0,0,0,1127.32,684.1Z" transform="translate(-44.89 -87.91)"/><path class="cls-10" d="M1100.51,943.42a12.1,12.1,0,0,1,6.35-.2l-27.66-37L1068,877.91l-26.31,15.77,23.46,20.77,23.77,43.1C1091.31,951.46,1095.35,945.16,1100.51,943.42Z" transform="translate(-44.89 -87.91)"/><path class="cls-10" d="M1144.48,1016.75a12.67,12.67,0,0,1-9,.17,8.4,8.4,0,0,1-5.37-6.92,9.85,9.85,0,0,1,.55-3.65,16.47,16.47,0,0,1,8.31-9.55,24.24,24.24,0,0,1-7.77,2.13c-2.7.11-5.6-.84-7.12-3.07-4.87-7.08,2.89-13.25,7.57-19.49l-.26-.35c-6.43-.33-13.63.44-17.77-.74,1,4.22,1.79,8.64.79,12.86a12.55,12.55,0,0,1-4.67,7.21l23.44,42.51,79.69,144.54-6.23,3.6,29.46,61.7,77.26-45.27-41.44-54.1-8.25,4.77-107.11-143.38-2.17-2.92A17.24,17.24,0,0,1,1144.48,1016.75Z" transform="translate(-44.89 -87.91)"/><path class="cls-10" d="M793.08,900.79c54.07-11.4,90.14-42.59,102.48-97.51,4-17.91,4.74-36.36,6.69-54.62.61-5.64,1.32-11.27,2.29-16.85a272.63,272.63,0,0,1,9.33-36.19c3.91-12.15,8.29-24.2,12.36-36.32,1.82-5.42,3.57-10.85,5.19-16.31,9.93-33.51,15.33-72.68,6-106.8-.61-2.21-1.3-4.42-2-6.6a65.9,65.9,0,0,0-10.49-20.07c-10.24-12.79-26.42-19.8-42.68-21.84-43.92-5.5-81.83,24.16-101.93,61.43-15.38,28.51-21.68,60.88-28.66,92.07-8,35.81-17.09,71.43-25.13,107.26-8.47,37.7-12.36,78,.8,114.33,7.12,19.66,19.11,32.55,35.34,37.44C771.51,902.89,781.69,903.19,793.08,900.79Z" transform="translate(-44.89 -87.91)"/><path class="cls-11" d="M1111.62,1840.54c-29.76,2.16-60.43,5.14-87,18.48-1.49.75-3,1.51-4.43,2.33-17.29,9.65-31.7,23.61-45.89,37.41-25,24.34-48.92,55.65-79.94,70.12a81.32,81.32,0,0,1-47.5,7c-34.17-5.05-72.54-2.83-106.55,2.46-8.82,1.37-17.81,2.89-26.38,5-21.82,5.48-40.8,15.17-46.47,37.7,0,0-2.23,45.9,120.53,54.81s143.15-29.68,236.3-29.68,141.85,55,212.65,52.64c107.35-3.61,105.8-75.87,105.8-75.87.43-4-32.06-72.08-49.86-97.38-20.11-28.58-43.43-56.83-74.32-72.46-3.06-1.54-6.16-3-9.37-4.3C1178.64,1836.63,1144.48,1838.17,1111.62,1840.54Z" transform="translate(-44.89 -87.91)"/><circle class="cls-12" cx="1551.35" cy="1652.92" r="375.84"/><path class="cls-13" d="M1596.06,1587.67a7.13,7.13,0,0,0,6.82-.46A955.93,955.93,0,0,1,1724,1526c8.92-3.74,4.35-18.18-4.67-14.41a985.14,985.14,0,0,0-114.6,57.14q31.53-69.89,59.54-141.32c3.52-9-9.85-16.11-13.4-7.05q-42.09,107.4-92.26,211.36L1524.8,1514q-12.33-42.95-24.67-85.9c-2.68-9.37-17.09-4.7-14.4,4.67q43.17,150.32,86.33,300.63l24.66,85.89c2.69,9.37,17.1,4.71,14.41-4.67L1564.72,1653a7.7,7.7,0,0,0,1.36-1.94Q1581.46,1619.55,1596.06,1587.67Z" transform="translate(-44.89 -87.91)"/><path class="cls-13" d="M1771.68,1605.39,1688,1710.24c-6,7.59,5.3,17.61,11.39,10l83.68-104.85C1789.13,1607.77,1777.78,1597.75,1771.68,1605.39Z" transform="translate(-44.89 -87.91)"/><path class="cls-13" d="M1524.8,1840.81q-55.87-36-113.7-68.64-15.51-38.42-33-76-4.59-9.79-9.32-19.53c-2.6-5.35-5-13.35-9.78-17.13s-12.07-2.4-14.14,3.63c-1.58,4.58,1.09,10.68,6.06,11.45l1.05,2.14c1.12,2.27,2.22,4.53,3.33,6.81q3.54,7.29,7,14.63,6.46,13.71,12.67,27.53c5.14,11.46,10.09,23,14.94,34.6q-55.73-30.81-113-58.7c-3.71-1.8-8.37,1.25-9.59,4.76-1.49,4.27,1.1,7.82,4.76,9.59q64.55,31.35,127,66.68l.36.86a6.19,6.19,0,0,0,8,3.9q7.24,4.13,14.47,8.28l-125.34,48.78c-9.06,3.52-2.12,17,6.9,13.47l131.51-51.17a7.09,7.09,0,0,0,2.73-1.81q39.86,23.49,78.78,48.49C1524.64,1858.72,1533,1846.09,1524.8,1840.81Z" transform="translate(-44.89 -87.91)"/><path class="cls-13" d="M1618.56,1865.25q65.76,9.43,132,15.07,30.1,28.48,61.69,55.34,8.25,7,16.61,13.88c4.58,3.78,10,10.08,16,11.51s12-2.86,11.34-9.2c-.47-4.82-5.44-9.25-10.28-7.89l-1.84-1.5-5.86-4.8q-6.27-5.16-12.48-10.39-11.58-9.76-23-19.75c-9.45-8.29-18.75-16.73-28-25.25q63.49,4.83,127.21,6.33c4.12.09,7.09-4.63,6.74-8.32-.43-4.51-4.26-6.65-8.32-6.75q-71.74-1.62-143.28-7.73c-.22-.21-.46-.42-.68-.64a6.21,6.21,0,0,0-8.86-.23c-5.53-.49-11.07-1-16.6-1.5q46.83-48.27,93.66-96.53c6.77-7-5.15-16.33-11.89-9.38l-98.26,101.27a7.14,7.14,0,0,0-1.74,2.79q-46-4.78-91.81-11.3C1611.25,1848.9,1608.91,1863.86,1618.56,1865.25Z" transform="translate(-44.89 -87.91)"/><circle class="cls-13" cx="346.85" cy="1673.19" r="346.75"/><path class="cls-12" d="M475.08,1657.54q21.44-53.82,43-107.65c4.65-11.79-13.38-19.68-18-8q-51,127.83-102,255.74-51.28-140.84-91.9-285.24c-3.41-12.15-21.64-4.71-18.24,7.38q27,96,58.69,190.47a1279.81,1279.81,0,0,0-140.79-88.75c-11.16-6-19,12-7.91,18a1241.89,1241.89,0,0,1,148.67,94.86,9.23,9.23,0,0,0,8.77,1.48q14.79,43.1,30.55,85.85a9.84,9.84,0,0,0,1.49,2.66l0,0q-19,47.61-38,95.28-7.92,19.82-15.77,39.62c2.2,2.49,4.48,4.91,6.71,7.35,2.66,2.92,5.28,5.85,8,8.77Q411.7,1816.46,475.08,1657.54Z" transform="translate(-44.89 -87.91)"/><path class="cls-12" d="M600,1930.84l-96.15-69.42c4.73-1.32,9.46-2.59,14.19-3.87a5.46,5.46,0,0,0,7.65-1.56l.49-.65q61.15-16.24,123.23-28.73c8.29-1.66,7.48-15-1-13.32q-55.08,11.06-109.49,25,10.07-13.23,20.44-26.23,8.35-10.42,16.92-20.68,4.27-5.13,8.61-10.21l5-5.8c.46-.53.92-1.05,1.37-1.58,4.3.43,7.85-3.94,7.76-8.1-.12-5.35-5.68-8.54-10.54-7-5.13,1.68-9,8.22-12.29,12.11q-6.51,7.61-12.91,15.33-23.33,28.14-45.07,57.53Q461.7,1858.86,406,1877.09c-8.16,2.68-3.85,15.32,4.34,12.63q38.75-12.73,78-23.9a6.32,6.32,0,0,0,1.93,2.15l100.88,72.84C598.06,1945.8,607,1935.87,600,1930.84Z" transform="translate(-44.89 -87.91)"/><path class="cls-12" d="M576,1639.4l-68.68,96.32c-5,7,5.5,15.25,10.5,8.24l68.68-96.31C591.42,1640.67,581,1632.39,576,1639.4Z" transform="translate(-44.89 -87.91)"/><path class="cls-12" d="M143,1730.56q44.31,39.4,88.63,78.78c-4.83.83-9.67,1.62-14.5,2.41a5.47,5.47,0,0,0-7.77.79l-.55.59q-62.49,10-125.5,16.13c-8.43.82-9,14.19-.41,13.35q55.92-5.41,111.46-13.85-11.35,12.15-23,24-9.37,9.53-18.92,18.86-4.78,4.66-9.61,9.29l-5.53,5.26-1.52,1.44c-4.23-.86-8.2,3.12-8.54,7.27-.42,5.33,4.79,9.07,9.78,8,5.28-1.15,9.75-7.27,13.45-10.8q7.26-6.91,14.4-13.95,26.06-25.64,50.65-52.69,57.8-9.32,115-21.83c8.4-1.85,5.38-14.85-3-13q-39.84,8.74-80,15.89a6.32,6.32,0,0,0-1.71-2.33q-46.5-41.33-93-82.66C146.41,1715.87,136.52,1724.86,143,1730.56Z" transform="translate(-44.89 -87.91)"/><path class="cls-1" d="M166.59,1193.56l4.09,4.09a14.88,14.88,0,0,0,9.44,3.91,14.82,14.82,0,0,0,9.44-3.91l2.09-2.7a13.39,13.39,0,0,0,1.82-6.74c-.16-1.18-.31-2.36-.47-3.55a13.48,13.48,0,0,0-3.44-5.89l-4.09-4.09a14.88,14.88,0,0,0-9.44-3.91,14.88,14.88,0,0,0-9.44,3.91l-2.09,2.7a13.39,13.39,0,0,0-1.82,6.74l.48,3.55A13.31,13.31,0,0,0,166.59,1193.56Z" transform="translate(-44.89 -87.91)"/><path class="cls-1" d="M1275.87,379.23c17.18,0,17.21-26.7,0-26.7S1258.66,379.23,1275.87,379.23Z" transform="translate(-44.89 -87.91)"/></svg>